<?xml version="1.0" encoding="iso-8859-1"?>
<!-- Generator: Adobe Illustrator 23.0.3, SVG Export Plug-In . SVG Version: 6.00 Build 0)  -->
<svg xmlns="http://www.w3.org/2000/svg" xmlns:xlink="http://www.w3.org/1999/xlink" version="1.1" id="Layer_1" x="0px" y="0px" viewBox="0 0 64 64" style="enable-background:new 0 0 64 64;" xml:space="preserve">
<radialGradient id="SVGID_1__121219" cx="213.125" cy="287.3333" r="195.6235" gradientUnits="userSpaceOnUse" spreadMethod="reflect">
	<stop offset="1.012280e-07" style="stop-color:#EED7A2"/>
	<stop offset="0.106" style="stop-color:#F1DCAB"/>
	<stop offset="0.4373" style="stop-color:#F8E8C3"/>
	<stop offset="0.744" style="stop-color:#FCEFD2"/>
	<stop offset="1" style="stop-color:#FEF2D7"/>
</radialGradient>
<path style="fill:url(#SVGID_1__121219);" d="M6,4L6,4c0-2.209,1.791-4,4-4h0c2.209,0,4,1.791,4,4v0c0,2.209-1.791,4-4,4h0  C7.791,8,6,6.209,6,4z M54.5,25h-7c-1.933,0-3.5,1.567-3.5,3.5v0c0,1.933,1.567,3.5,3.5,3.5H49c2.209,0,4,1.791,4,4v0  c0,2.209-1.791,4-4,4h-3v0.5c0,1.381,1.119,2.5,2.5,2.5H48c2.209,0,4,1.791,4,4v0c0,2.209-1.791,4-4,4l-3.5,6  c1.933,0,3.5,1.567,3.5,3.5v0C44,61,41,61,39,64c-7.575,0-19.934,0-27.508-0.001C9.56,63.999,8,62.432,8,60.5v0  c0-1.932,1.566-3.498,3.498-3.499l3.002-0.001c1.933,0,3.5-1.568,3.5-3.501v0c0-1.933-1.567-3.5-3.5-3.5H9c-2.209,0-4-1.791-4-4v0  c0-2.209,1.791-4,4-4h8v-5c0,0-3.707,0-7.001,0C7.237,37.001,5,34.762,5,31.975V31.85c0-2.68,2.173-4.851,4.852-4.851L13,26.999  c1.657,0,3-1.343,3-2.999v0c0-1.657-1.343-3-3-3h-3c-1.657,0-3-1.343-3-3v-1c0-1.657,1.343-3,3-3h14c1.657,0,3-1.343,3-3v0  c0-1.657-1.343-3-3-3h-4c-2.209,0-4-1.791-4-4v0c0-2.209,1.791-4,4-4l32,0c2.209,0,4,1.791,4,4v0c0,2.209-1.791,4-4,4h-8  c-2.209,0-4,1.791-4,4v0c0,2.209,1.791,4,4,4h10.5c2.485,0,4.5,2.015,4.5,4.5v0C59,22.985,56.985,25,54.5,25z"/>
<linearGradient id="SVGID_2__121219" gradientUnits="userSpaceOnUse" x1="32" y1="52" x2="32" y2="12" spreadMethod="reflect">
	<stop offset="0" style="stop-color:#3CB5EA"/>
	<stop offset="1" style="stop-color:#7DDEFB"/>
</linearGradient>
<path style="fill:url(#SVGID_2__121219);" d="M54,12H10c-3.314,0-6,2.686-6,6v28c0,3.314,2.686,6,6,6h44c3.314,0,6-2.686,6-6V18  C60,14.686,57.314,12,54,12z"/>
<linearGradient id="SVGID_3__121219" gradientUnits="userSpaceOnUse" x1="32" y1="89.4713" x2="32" y2="28.0322" spreadMethod="reflect">
	<stop offset="0" style="stop-color:#155CDE"/>
	<stop offset="0.2782" style="stop-color:#1F7FE5"/>
	<stop offset="0.5693" style="stop-color:#279CEB"/>
	<stop offset="0.8201" style="stop-color:#2CAFEF"/>
	<stop offset="1" style="stop-color:#2EB5F0"/>
</linearGradient>
<path style="fill:url(#SVGID_3__121219);" d="M4,38v8c0,3.314,2.686,6,6,6h44c3.314,0,6-2.686,6-6v-8H31l-1,2l-2-2H4z"/>
<linearGradient id="SVGID_4__121219" gradientUnits="userSpaceOnUse" x1="21" y1="39.0257" x2="21" y2="12" spreadMethod="reflect">
	<stop offset="0" style="stop-color:#75D0F3"/>
	<stop offset="1" style="stop-color:#96E5FC"/>
</linearGradient>
<path style="fill:url(#SVGID_4__121219);" d="M7.97,24.03C8.61,24.66,9,25.54,9,26.5C9,28.42,7.43,30,5.5,30H4v8h24.5  c0.537,0,1.045,1.216,1.5,1c0.353-0.168,0.673-1.73,0.949-2C31.598,36.365,32,35.479,32,34.5v0c0-1.933-1.567-3.5-3.5-3.5h-1  c-0.96,0-1.84-0.39-2.47-1.03c-0.611-0.601-0.994-1.43-1.028-2.339C23.928,25.635,25.699,24,27.696,24l7.175,0  c1.292,0,2.513-0.759,2.948-1.975c0.425-1.187,0.061-2.384-0.7-3.145C36.58,18.34,35.82,18,35,18h-3c-1.1,0-2.1-0.45-2.82-1.18  C28.45,16.1,28,15.1,28,14c0-0.73,0.2-1.41,0.55-2H10c-3.314,0-6,2.686-6,6v5h1.5C6.46,23,7.34,23.39,7.97,24.03z"/>
<linearGradient id="SVGID_5__121219" gradientUnits="userSpaceOnUse" x1="23.595" y1="56.8153" x2="23.595" y2="18.1765" spreadMethod="reflect">
	<stop offset="0" style="stop-color:#155CDE"/>
	<stop offset="0.2782" style="stop-color:#1F7FE5"/>
	<stop offset="0.5693" style="stop-color:#279CEB"/>
	<stop offset="0.8201" style="stop-color:#2CAFEF"/>
	<stop offset="1" style="stop-color:#2EB5F0"/>
</linearGradient>
<path style="fill:url(#SVGID_5__121219);" d="M26.52,34.553c-1.512-2.131-4.676-2.057-6.08,0.149c-3.498,5.482-9.127,14.291-11.08,17.263  C9.571,51.987,9.784,52,10,52h24.285c1.388,0,2.652-0.578,3.544-1.503L26.52,34.553z"/>
<linearGradient id="SVGID_6__121219" gradientUnits="userSpaceOnUse" x1="17.6805" y1="61.4013" x2="17.6805" y2="21.8504" spreadMethod="reflect">
	<stop offset="0" style="stop-color:#155CDE"/>
	<stop offset="0.2782" style="stop-color:#1F7FE5"/>
	<stop offset="0.5693" style="stop-color:#279CEB"/>
	<stop offset="0.8201" style="stop-color:#2CAFEF"/>
	<stop offset="1" style="stop-color:#2EB5F0"/>
</linearGradient>
<path style="fill:url(#SVGID_6__121219);" d="M15.73,48.73C16.18,48.28,16.81,48,17.5,48h5.89c0.79-1.21,1.66-2.57,2.58-4H21.5  c-1.38,0-2.5-1.12-2.5-2.5c0-0.69,0.28-1.32,0.73-1.77C20.18,39.28,20.81,39,21.5,39H23c0.82,0,1.58-0.34,2.12-0.88  C25.66,37.58,26,36.82,26,36c0-1.561-1.211-2.846-2.737-2.974c-1.094,0.079-2.157,0.63-2.823,1.675  c-3.498,5.482-9.127,14.291-11.08,17.263C9.571,51.987,9.784,52,10,52h5.5c-0.31-0.41-0.5-0.94-0.5-1.5  C15,49.81,15.28,49.18,15.73,48.73z"/>
<linearGradient id="SVGID_7__121219" gradientUnits="userSpaceOnUse" x1="38.0454" y1="71.7197" x2="38.0454" y2="22.9958" spreadMethod="reflect">
	<stop offset="0" style="stop-color:#155CDE"/>
	<stop offset="0.2782" style="stop-color:#1F7FE5"/>
	<stop offset="0.5693" style="stop-color:#279CEB"/>
	<stop offset="0.8201" style="stop-color:#2CAFEF"/>
	<stop offset="1" style="stop-color:#2EB5F0"/>
</linearGradient>
<path style="fill:url(#SVGID_7__121219);" d="M55.29,50.18C54.21,51.3,52.68,52,51,52H20.8c2.34-3.56,9.19-14.28,13.44-20.94  c1.7-2.67,5.53-2.76,7.36-0.18L55.29,50.18z"/>
<linearGradient id="SVGID_8__121219" gradientUnits="userSpaceOnUse" x1="47.6443" y1="64.4968" x2="47.6443" y2="16.5578" spreadMethod="reflect">
	<stop offset="0" style="stop-color:#155CDE"/>
	<stop offset="0.2782" style="stop-color:#1F7FE5"/>
	<stop offset="0.5693" style="stop-color:#279CEB"/>
	<stop offset="0.8201" style="stop-color:#2CAFEF"/>
	<stop offset="1" style="stop-color:#2EB5F0"/>
</linearGradient>
<path style="fill:url(#SVGID_8__121219);" d="M53.74,48l-2.83-4l-2.84-4l-2.84-4l-2.84-4H42c-0.55,0-1.05,0.22-1.41,0.59  C40.22,32.95,40,33.45,40,34c0,1.1,0.9,2,2,2c0.55,0,1.05,0.22,1.41,0.59C43.78,36.95,44,37.45,44,38c0,1.1-0.9,2-2,2h-1  c-0.55,0-1.05,0.22-1.41,0.59C39.22,40.95,39,41.45,39,42c0,1.1,0.9,2,2,2h3c0.55,0,1.05,0.22,1.41,0.59C45.78,44.95,46,45.45,46,46  c0,1.1-0.9,2-2,2h-2c-0.55,0-1.05,0.22-1.41,0.59C40.22,48.95,40,49.45,40,50c0,1.1,0.9,2,2,2h9h3c0.811,0,1.583-0.163,2.288-0.454  L53.74,48z"/>
<linearGradient id="SVGID_9__121219" gradientUnits="userSpaceOnUse" x1="16.5" y1="27" x2="16.5" y2="18" spreadMethod="reflect">
	<stop offset="0" style="stop-color:#F2FBFE"/>
	<stop offset="1" style="stop-color:#F4FCFE"/>
</linearGradient>
<circle style="fill:url(#SVGID_9__121219);" cx="16.5" cy="22.5" r="4.5"/>
<g>
	
		<linearGradient id="SVGID_10__121219" gradientUnits="userSpaceOnUse" x1="1020.0358" y1="-702.9681" x2="1020.0358" y2="-712.9814" gradientTransform="matrix(0 -1 1 0 768.0002 1063.0001)" spreadMethod="reflect">
		<stop offset="0" style="stop-color:#FF634D"/>
		<stop offset="0.2083" style="stop-color:#FD6464"/>
		<stop offset="0.5223" style="stop-color:#FC6582"/>
		<stop offset="0.7935" style="stop-color:#FA6694"/>
		<stop offset="0.9892" style="stop-color:#FA669A"/>
		<stop offset="1" style="stop-color:#FA669A"/>
	</linearGradient>
	<path style="fill:url(#SVGID_10__121219);" d="M63.577,43.134l-3.711-3.709c-0.564-0.566-1.482-0.566-2.046,0l-1.747,1.747l5.758,5.757   l1.746-1.747C64.141,44.615,64.141,43.7,63.577,43.134"/>
	
		<linearGradient id="SVGID_11__121219" gradientUnits="userSpaceOnUse" x1="1009.9406" y1="-709.2409" x2="1009.9406" y2="-725.7338" gradientTransform="matrix(0 -1 1 0 768.0002 1063.0001)" spreadMethod="reflect">
		<stop offset="0" style="stop-color:#FF9757"/>
		<stop offset="1" style="stop-color:#FFB65B"/>
		<stop offset="1" style="stop-color:#FFB65B"/>
	</linearGradient>
	<polygon style="fill:url(#SVGID_11__121219);" points="46.694,62.066 40.937,56.309 53.193,44.053 58.95,49.81  "/>
	<g>
		
			<linearGradient id="SVGID_12__121219" gradientUnits="userSpaceOnUse" x1="1017.5074" y1="-717.0425" x2="1017.5074" y2="-708.4048" gradientTransform="matrix(0 -1 1 0 768.0002 1063.0001)" spreadMethod="reflect">
			<stop offset="0" style="stop-color:#D8D8D8"/>
			<stop offset="0.7595" style="stop-color:#C9C9C9"/>
			<stop offset="1" style="stop-color:#C3C3C3"/>
		</linearGradient>
		<polygon style="fill:url(#SVGID_12__121219);" points="58.953,49.811 53.193,44.054 56.071,41.175 61.831,46.931   "/>
	</g>
	
		<linearGradient id="SVGID_13__121219" gradientUnits="userSpaceOnUse" x1="1002.8477" y1="-713.7383" x2="1002.8477" y2="-728.6834" gradientTransform="matrix(0 -1 1 0 768.0002 1063.0001)" spreadMethod="reflect">
		<stop offset="0" style="stop-color:#FFCE76"/>
		<stop offset="0.0036" style="stop-color:#FFCE76"/>
		<stop offset="0.6054" style="stop-color:#FFCD92"/>
		<stop offset="1" style="stop-color:#FFCCA0"/>
		<stop offset="1" style="stop-color:#FFCCA0"/>
	</linearGradient>
	<polygon style="fill:url(#SVGID_13__121219);" points="40.938,56.305 39,64 46.695,62.063  "/>
	
		<linearGradient id="SVGID_14__121219" gradientUnits="userSpaceOnUse" x1="1000.9451" y1="-729.8026" x2="1000.9451" y2="-725.913" gradientTransform="matrix(0 -1 1 0 768.0002 1063.0001)" spreadMethod="reflect">
		<stop offset="0" style="stop-color:#A4A4A4"/>
		<stop offset="0.6301" style="stop-color:#7F7F7F"/>
		<stop offset="1" style="stop-color:#6F6F6F"/>
		<stop offset="1" style="stop-color:#6F6F6F"/>
	</linearGradient>
	<polygon style="fill:url(#SVGID_14__121219);" points="39.979,60.11 39,64 42.89,63.021  "/>
</g>
</svg>
